# xmcd
# Copyright (C) 1995-1998 Ti Kan
#
# Track frame offsets:
#       150
#       22746
#       38372
#       58086
#       75242
#       91934
#       104250
#       120178
#       139816
#       156594
#       173809
#       190584
#       209687
#
# Disc length: 3937 seconds
#
# Revision: 0
# Processed by: cddbd v1.5.2PL0 Copyright (c) Steve Scherf et al.
# Submitted via: CD-Import v1.0
#
DISCID=990f5f0d
DTITLE=Bernadette La Hengst - Machinetta
DYEAR=08
DGENRE=
TTITLE0=Freiheit Ohne Sicherheit
TTITLE1=Niemals Dorthin
TTITLE2=Das Populistische Paradies
TTITLE3=Liebe Ist Ein Tauschgeschäft
TTITLE4=Süsse Gefangenschaft
TTITLE5=Der Grüne Halsbandsittich
TTITLE6=So Leicht
TTITLE7=Das Echo Unserer Eltern
TTITLE8=Das Dorf Am Ende Der Welt
TTITLE9=Liebesrebellion
TTITLE10=Killyour Idols
TTITLE11=Züge Spielen
TTITLE12=Haare Zu Berge
EXTD=
EXTT0=
EXTT1=
EXTT2=
EXTT3=
EXTT4=
EXTT5=
EXTT6=
EXTT7=
EXTT8=
EXTT9=
EXTT10=
EXTT11=
EXTT12=
PLAYORDER=
